<svg xmlns="http://www.w3.org/2000/svg" width="121" height="17" viewBox="0 0 121 17" fill="none"><path d="M30.1599 3.87256C35.2196 5.05919 33.0606 10.6462 28.5283 10.3166C29.237 10.6957 31.4784 12.9865 32.0882 12.8876L38.3345 3.87256H44.2512L48.3384 13.2832H44.1523C43.7732 13.2832 44.0204 11.9647 42.9327 11.8329C42.1745 11.7505 37.5764 11.7175 37.0325 11.8823C36.4721 12.0471 36.192 13.2173 35.9283 13.2832L27.0285 13.2337C26.7813 13.1678 23.4027 10.4155 23.3038 10.2012C23.1885 9.93755 23.5511 8.05872 23.6335 7.97632C23.7983 7.82799 27.3911 8.04224 28.1657 7.9104C29.0557 7.74559 29.1711 6.65784 28.0174 6.52599C26.5012 6.3447 24.5894 6.65784 23.0401 6.55896L21.5898 13.2832H17.7168L19.5462 3.87256H30.1599ZM38.73 9.39368H42.4053C42.1251 8.53667 41.779 7.6467 41.3999 6.82265C41.1198 6.19637 40.6253 6.57544 40.2463 6.93802C40.0485 7.11931 38.5982 9.2948 38.73 9.41016V9.39368Z" fill="white"/><path d="M17.7006 3.87256C18.4917 4.21866 18.1785 5.80083 17.9478 6.47655C17.6182 7.49837 16.5305 8.00928 15.657 8.47075C17.1073 8.78389 17.7995 7.9928 17.7171 9.90459C17.6676 10.9264 17.4699 11.8658 16.6953 12.5745C16.5469 12.7064 15.657 13.2832 15.5581 13.2832H3.60938C4.21917 10.9759 4.31806 7.66318 5.1421 5.50417C5.4882 4.6142 6.32873 4.28458 7.08686 3.87256H17.7006ZM14.4374 6.52599H9.03161C8.28997 7.77855 8.4383 9.45961 7.91091 10.8275H13.5309C13.7287 10.8275 14.1572 9.88811 14.0418 9.59145H10.4655C9.98751 9.59145 10.2512 7.89391 10.4819 7.7291C11.4708 7.02042 14.3385 8.47075 14.4374 6.52599Z" fill="white"/><path d="M73.2248 3.87256C74.8894 4.41643 76.6034 5.07567 76.8836 7.06987C76.933 7.48189 76.9824 8.9487 76.8012 9.21239C76.5375 9.60793 75.3014 9.44312 74.741 11.0418C74.4773 11.7834 74.9223 12.0966 74.0818 12.6404C72.2854 13.7941 65.9072 13.7611 63.8636 13.1678C61.1113 12.3603 60.2543 10.1024 61.1607 7.46541C61.9188 5.28992 63.8471 4.5318 65.8578 3.88904H73.2083L73.2248 3.87256ZM67.2587 6.57544C65.3139 6.90506 64.0284 9.55849 66.0061 10.399C66.7807 10.7286 69.9616 10.7451 70.868 10.6133C72.5161 10.3661 73.5709 7.95984 72.0711 6.97098C71.1976 6.39415 68.297 6.41063 67.2422 6.59192L67.2587 6.57544Z" fill="white"/><path d="M50.5634 3.87256L53.5299 10.432C53.942 10.3661 54.354 9.60793 54.6177 9.26183C55.8867 7.56429 56.9909 5.66898 58.1281 3.87256H62.4132C60.5344 7.15227 58.0457 10.0529 56.0351 13.2502L50.3656 13.2008L46.2783 3.88904H50.5634V3.87256Z" fill="white"/><path d="M77.0981 13.679C78.0993 13.679 78.911 12.8674 78.911 11.8661C78.911 10.8649 78.0993 10.0532 77.0981 10.0532C76.0968 10.0532 75.2852 10.8649 75.2852 11.8661C75.2852 12.8674 76.0968 13.679 77.0981 13.679Z" fill="#ED1D24"/><path d="M92.7219 4.25195H81.9104C81.7291 4.25195 81.0534 4.68046 80.8721 4.84527C80.0151 5.70228 79.6195 8.25683 79.2734 10.4653C79.6855 10.7949 79.9492 11.2728 79.9492 11.8497C79.9492 12.2947 79.9492 12.9704 79.8008 13.4483H90.2662C90.4805 13.4483 91.6012 12.7561 91.799 12.5254C92.5406 11.7013 92.7219 10.0368 92.5901 8.96551L90.1674 8.537C91.0408 8.537 92.2934 7.59759 92.7054 6.88891C93.0021 6.34504 93.3152 4.43324 92.7219 4.25195ZM85.4868 7.96017C85.3714 8.05906 85.2395 9.29513 85.256 9.5753H89.1291C89.3763 10.1521 88.75 11.2069 88.2061 11.2069H83.097C82.9652 11.2069 82.8333 10.9432 82.8333 10.7455C82.8333 10.2181 83.6574 6.49336 84.1188 6.49336H89.5246C89.9366 8.96551 86.0471 7.44926 85.4703 7.94369L85.4868 7.96017Z" fill="#ED1D24"/><path d="M98.2597 6.49336H105.33L106.698 4.25195H94.6504C94.535 7.4987 91.107 13.0198 96.3809 13.4648C99.3804 13.7285 102.726 13.2506 105.759 13.4648C106.088 13.3824 106.121 11.553 106.088 11.2069H99.0508C98.8695 11.2069 97.6499 10.8938 97.5016 10.7125C97.2049 10.3664 97.3368 9.77308 97.6169 9.77308H106.286C106.385 9.77308 106.385 8.1909 106.484 7.92721H97.9136C97.8806 7.61407 97.9301 6.55929 98.2597 6.49336Z" fill="#ED1D24"/><path d="M108.032 4.25195C107.901 4.25195 106.846 6.19671 106.714 6.50985H110.587L109.565 13.4648H113.438L114.493 6.52633C115.103 6.34504 118.3 6.67466 118.531 6.47688C118.745 6.29559 118.663 4.6475 118.959 4.25195H108.032Z" fill="#ED1D24"/></svg>